<svg xmlns="http://www.w3.org/2000/svg" viewBox="0 0 540 960" role="img" aria-labelledby="title">
  <title id="title">LINE OA member registration form</title><rect width="540" height="960" fill="#f1faf6"/><rect x="30" y="36" width="480" height="286" rx="38" fill="#087653"/>
  <g font-family="Arial,sans-serif"><text x="62" y="79" fill="#b7f3dc" font-size="15" font-weight="700" letter-spacing="4">LINE OA MEMBERSHIP</text><text x="62" y="150" fill="#fff" font-size="39" font-weight="700">Join for</text><text x="62" y="194" fill="#fff" font-size="39" font-weight="700">member perks</text><text x="62" y="243" fill="#c6f0e2" font-size="16">A quick registration for offers and coupons.</text><rect x="62" y="270" width="416" height="34" rx="17" fill="#fff" opacity=".14"/><text x="82" y="293" fill="#d6f5e9" font-size="13">Organic (LINE OA Search/Landing Page)</text>
  <rect x="30" y="354" width="480" height="560" rx="35" fill="#fff" stroke="#dceae6"/><text x="56" y="403" fill="#485b68" font-size="16" font-weight="700">Full name</text><rect x="56" y="420" width="428" height="58" rx="13" fill="#fff" stroke="#d8e3e5"/><text x="78" y="456" fill="#5e6d7b" font-size="17">Tawan Pachara</text><text x="56" y="521" fill="#485b68" font-size="16" font-weight="700">Phone number</text><rect x="56" y="538" width="428" height="58" rx="13" fill="#fff" stroke="#d8e3e5"/><text x="78" y="574" fill="#a5aeb6" font-size="17">08x-xxx-xxxx</text><text x="56" y="639" fill="#485b68" font-size="16" font-weight="700">Email</text><rect x="56" y="656" width="428" height="58" rx="13" fill="#fff" stroke="#d8e3e5"/><text x="78" y="692" fill="#a5aeb6" font-size="17">name@example.com</text><rect x="56" y="813" width="428" height="65" rx="13" fill="#087653"/><text x="270" y="853" fill="#fff" font-size="18" font-weight="700" text-anchor="middle">REGISTER</text></g>
</svg>
