<svg xmlns="http://www.w3.org/2000/svg" viewBox="0 0 1200 675" role="img" aria-labelledby="title desc">
  <title id="title">LINE OA member registration product overview</title>
  <desc id="desc">Mobile screens showing registration and member coupons.</desc>
  <defs>
    <linearGradient id="bg" x1="0" x2="1" y1="0" y2="1"><stop stop-color="#003d30"/><stop offset="1" stop-color="#061f1b"/></linearGradient>
    <filter id="shadow" x="-20%" y="-20%" width="140%" height="140%"><feDropShadow dx="0" dy="16" stdDeviation="14" flood-color="#001c16" flood-opacity=".48"/></filter>
  </defs>
  <rect width="1200" height="675" fill="url(#bg)"/><circle cx="1130" cy="-20" r="360" fill="#00bd84" opacity=".08"/><circle cx="62" cy="680" r="300" fill="#00bd84" opacity=".06"/>
  <g transform="translate(92 102)" font-family="Arial,sans-serif"><text fill="#6ef5c5" font-size="17" font-weight="700" letter-spacing="5">LINE OA MEMBERSHIP</text><text y="68" fill="#fff" font-size="56" font-weight="700">Member Registration</text><text y="110" fill="#b7e5d5" font-size="23">LIFF identity, source tracking, and member coupons</text><rect y="164" width="238" height="46" rx="23" fill="#00c98d"/><text x="22" y="193" fill="#003d30" font-size="15" font-weight="700">LINE LIFF EXPERIENCE</text></g>
  <g filter="url(#shadow)" font-family="Arial,sans-serif">
    <g transform="translate(675 58)"><rect width="216" height="552" rx="28" fill="#f7fffc"/><rect x="9" y="10" width="198" height="232" rx="22" fill="#087653"/><text x="27" y="41" fill="#a7f4d7" font-size="10" font-weight="700" letter-spacing="2">LINE OA MEMBERSHIP</text><text x="27" y="94" fill="#fff" font-size="25" font-weight="700">Join for</text><text x="27" y="123" fill="#fff" font-size="25" font-weight="700">member perks</text><rect x="25" y="198" width="166" height="25" rx="12" fill="#fff" opacity=".13"/><text x="39" y="215" fill="#c7f3e4" font-size="9">Organic (Landing Page)</text><text x="21" y="279" fill="#405a62" font-size="12" font-weight="700">Full name</text><rect x="21" y="291" width="174" height="41" rx="9" fill="#fff" stroke="#d9e6e2"/><text x="32" y="316" fill="#687a81" font-size="11">Tawan Pachara</text><text x="21" y="360" fill="#405a62" font-size="12" font-weight="700">Phone number</text><rect x="21" y="372" width="174" height="41" rx="9" fill="#fff" stroke="#d9e6e2"/><text x="32" y="397" fill="#a0adb0" font-size="11">08x-xxx-xxxx</text><rect x="21" y="485" width="174" height="42" rx="9" fill="#087653"/><text x="68" y="511" fill="#fff" font-size="12" font-weight="700">REGISTER</text></g>
    <g transform="translate(916 92)"><rect width="216" height="518" rx="28" fill="#f7fffc"/><rect x="10" y="11" width="196" height="185" rx="22" fill="#087653"/><circle cx="36" cy="42" r="13" fill="none" stroke="#b2f7dd" stroke-width="3"/><path d="m29 42 5 5 10-11" fill="none" stroke="#b2f7dd" stroke-width="3"/><text x="25" y="91" fill="#c3f5e3" font-size="11">MEMBER STATUS</text><text x="25" y="120" fill="#fff" font-size="20" font-weight="700">Hello Tawan</text><text x="20" y="239" fill="#11815e" font-size="10" font-weight="700" letter-spacing="2">MEMBER BENEFITS</text><text x="20" y="265" fill="#163f36" font-size="19" font-weight="700">Your coupons</text><g transform="translate(20 290)"><rect width="176" height="93" rx="14" fill="#fff" stroke="#c9ede0"/><text x="16" y="31" fill="#f49b25" font-size="20">★</text><text x="16" y="58" fill="#173f36" font-size="15" font-weight="700">Welcome Coupon</text><text x="16" y="78" fill="#72808c" font-size="10">10% discount</text></g><g transform="translate(20 397)"><rect width="176" height="93" rx="14" fill="#fff" stroke="#c9ede0"/><text x="16" y="31" fill="#f49b25" font-size="20">★</text><text x="16" y="58" fill="#173f36" font-size="15" font-weight="700">Free Sample</text><text x="16" y="78" fill="#72808c" font-size="10">One product sample</text></g></g>
  </g>
</svg>
